RockStems_e02.ufo
<glyph name="period" format="2">
	<advance width="166"/>
	<unicode hex="002E"/>
	<outline>
		<contour>
			<point x="144" y="47" type="curve" smooth="yes"/>
			<point x="144" y="8"/>
			<point x="121" y="-14"/>
			<point x="83" y="-14" type="curve" smooth="yes"/>
			<point x="45" y="-14"/>
			<point x="22" y="8"/>
			<point x="22" y="47" type="curve" smooth="yes"/>
			<point x="22" y="86"/>
			<point x="45" y="108"/>
			<point x="83" y="108" type="curve" smooth="yes"/>
			<point x="121" y="108"/>
			<point x="144" y="86"/>
		</contour>
	</outline>
</glyph>
<glyph name="B" format="2">
	<advance width="609"/>
	<unicode hex="0042"/>
	<outline>
		<contour>
			<point x="82" y="0" type="line"/>
			<point x="357" y="0" type="line"/>
			<point x="495" y="0"/>
			<point x="585" y="82"/>
			<point x="585" y="202" type="curve" smooth="yes"/>
			<point x="585" y="331"/>
			<point x="490" y="379"/>
			<point x="389" y="387" type="curve"/>
			<point x="348" y="346" type="line"/>
			<point x="430" y="355"/>
			<point x="519" y="405"/>
			<point x="519" y="517" type="curve" smooth="yes"/>
			<point x="519" y="631"/>
			<point x="423" y="680"/>
			<point x="318" y="680" type="curve" smooth="yes"/>
			<point x="82" y="680" type="line"/>
		</contour>
		<contour>
			<point x="435" y="80"/>
			<point x="311" y="80" type="curve" smooth="yes"/>
			<point x="276" y="80"/>
			<point x="222" y="83"/>
			<point x="180" y="87" type="curve"/>
			<point x="180" y="321" type="line"/>
			<point x="315" y="321" type="line"/>
			<point x="431" y="321"/>
			<point x="492" y="285"/>
			<point x="492" y="201" type="curve" smooth="yes"/>
			<point x="492" y="123"/>
		</contour>
		<contour>
			<point x="345" y="390" type="curve"/>
			<point x="390" y="401" type="line"/>
			<point x="176" y="401" type="line"/>
			<point x="176" y="596" type="line"/>
			<point x="308" y="596" type="line" smooth="yes"/>
			<point x="384" y="596"/>
			<point x="426" y="565"/>
			<point x="426" y="503" type="curve" smooth="yes"/>
			<point x="426" y="445"/>
			<point x="388" y="411"/>
		</contour>
	</outline>
</glyph>
<glyph name="D" format="2">
	<advance width="628"/>
	<unicode hex="0044"/>
	<outline>
		<contour>
			<point x="82" y="0" type="line"/>
			<point x="182" y="0" type="line"/>
			<point x="284" y="0" type="line" smooth="yes"/>
			<point x="452" y="0"/>
			<point x="586" y="116"/>
			<point x="586" y="367" type="curve" smooth="yes"/>
			<point x="586" y="592"/>
			<point x="475" y="680"/>
			<point x="331" y="680" type="curve" smooth="yes"/>
			<point x="82" y="680" type="line"/>
		</contour>
		<contour>
			<point x="398" y="67" type="curve"/>
			<point x="488" y="144" type="line"/>
			<point x="439" y="110"/>
			<point x="390" y="80"/>
			<point x="307" y="79" type="curve" smooth="yes"/>
			<point x="182" y="78" type="line"/>
			<point x="182" y="602" type="line"/>
			<point x="316" y="602" type="line" smooth="yes"/>
			<point x="426" y="602"/>
			<point x="488" y="536"/>
			<point x="488" y="362" type="curve" smooth="yes"/>
			<point x="488" y="183"/>
			<point x="458" y="129"/>
		</contour>
	</outline>
</glyph>
<glyph name="F" format="2">
	<advance width="480"/>
	<unicode hex="0046"/>
	<outline>
		<contour>
			<point x="84" y="0" type="line"/>
			<point x="184" y="0" type="line"/>
			<point x="184" y="288" type="line"/>
			<point x="422" y="288" type="line"/>
			<point x="422" y="372" type="line"/>
			<point x="184" y="372" type="line"/>
			<point x="184" y="596" type="line"/>
			<point x="448" y="596" type="line"/>
			<point x="448" y="680" type="line"/>
			<point x="84" y="680" type="line"/>
		</contour>
	</outline>
</glyph>
<glyph name="G" format="2">
	<advance width="608"/>
	<unicode hex="0047"/>
	<outline>
		<contour>
			<point x="42" y="335" type="curve" smooth="yes"/>
			<point x="42" y="106"/>
			<point x="150" y="-14"/>
			<point x="323" y="-14" type="curve" smooth="yes"/>
			<point x="424" y="-14"/>
			<point x="534" y="36"/>
			<point x="578" y="99" type="curve"/>
			<point x="578" y="386" type="line"/>
			<point x="334" y="386" type="line"/>
			<point x="334" y="303" type="line"/>
			<point x="492" y="303" type="line"/>
			<point x="494" y="72" type="line"/>
			<point x="515" y="130" type="line"/>
			<point x="479" y="100"/>
			<point x="411" y="74"/>
			<point x="341" y="74" type="curve" smooth="yes"/>
			<point x="199" y="74"/>
			<point x="150" y="152"/>
			<point x="150" y="329" type="curve" smooth="yes"/>
			<point x="150" y="429"/>
			<point x="157" y="508"/>
			<point x="183" y="581" type="curve"/>
			<point x="127" y="541" type="line"/>
			<point x="162" y="563"/>
			<point x="226" y="607"/>
			<point x="335" y="607" type="curve" smooth="yes"/>
			<point x="411" y="607"/>
			<point x="476" y="595"/>
			<point x="533" y="568" type="curve"/>
			<point x="533" y="665" type="line"/>
			<point x="486" y="684"/>
			<point x="432" y="694"/>
			<point x="354" y="694" type="curve" smooth="yes"/>
			<point x="145" y="694"/>
			<point x="42" y="559"/>
		</contour>
	</outline>
</glyph>
<glyph name="H" format="2">
	<advance width="670"/>
	<unicode hex="0048"/>
	<outline>
		<contour>
			<point x="488" y="311" type="line"/>
			<point x="488" y="0" type="line"/>
			<point x="588" y="0" type="line"/>
			<point x="588" y="680" type="line"/>
			<point x="488" y="680" type="line"/>
			<point x="488" y="389" type="line"/>
			<point x="182" y="389" type="line"/>
			<point x="182" y="680" type="line"/>
			<point x="82" y="680" type="line"/>
			<point x="82" y="0" type="line"/>
			<point x="182" y="0" type="line"/>
			<point x="182" y="311" type="line"/>
		</contour>
	</outline>
</glyph>
<glyph name="I" format="2">
	<advance width="264"/>
	<unicode hex="0049"/>
	<outline>
		<contour>
			<point x="82" y="0" type="line"/>
			<point x="182" y="0" type="line"/>
			<point x="182" y="680" type="line"/>
			<point x="82" y="680" type="line"/>
		</contour>
	</outline>
</glyph>
<glyph name="N" format="2">
	<advance width="662"/>
	<unicode hex="004E"/>
	<anchor x="331" y="680" name="top"/>
	<anchor x="331" y="0" name="bottom"/>
	<outline>
		<contour>
			<point x="82" y="0" type="line"/>
			<point x="178" y="0" type="line"/>
			<point x="178" y="582" type="line"/>
			<point x="142" y="582" type="line"/>
			<point x="480" y="0" type="line"/>
			<point x="580" y="0" type="line"/>
			<point x="580" y="680" type="line"/>
			<point x="484" y="680" type="line"/>
			<point x="484" y="98" type="line"/>
			<point x="520" y="98" type="line"/>
			<point x="182" y="680" type="line"/>
			<point x="82" y="680" type="line"/>
		</contour>
	</outline>
</glyph>
<glyph name="O" format="2">
	<advance width="660"/>
	<unicode hex="004F"/>
	<guideline x="28" y="340" angle="0"/>
	<guideline x="330" y="500" angle="90"/>
	<outline>
		<contour>
			<point x="319" y="-14" type="curve" smooth="yes"/>
			<point x="502" y="-14"/>
			<point x="618" y="109"/>
			<point x="618" y="345" type="curve" smooth="yes"/>
			<point x="618" y="575"/>
			<point x="510" y="694"/>
			<point x="341" y="694" type="curve" smooth="yes"/>
			<point x="158" y="694"/>
			<point x="42" y="571"/>
			<point x="42" y="335" type="curve" smooth="yes"/>
			<point x="42" y="105"/>
			<point x="150" y="-14"/>
		</contour>
		<contour>
			<point x="454" y="70" type="curve"/>
			<point x="536" y="146" type="line"/>
			<point x="478" y="97"/>
			<point x="405" y="74"/>
			<point x="333" y="74" type="curve" smooth="yes"/>
			<point x="211" y="74"/>
			<point x="150" y="139"/>
			<point x="150" y="329" type="curve" smooth="yes"/>
			<point x="150" y="473"/>
			<point x="174" y="581"/>
			<point x="206" y="610" type="curve"/>
			<point x="124" y="534" type="line"/>
			<point x="182" y="583"/>
			<point x="255" y="606"/>
			<point x="327" y="606" type="curve" smooth="yes"/>
			<point x="449" y="606"/>
			<point x="510" y="541"/>
			<point x="510" y="351" type="curve" smooth="yes"/>
			<point x="510" y="207"/>
			<point x="486" y="99"/>
		</contour>
	</outline>
</glyph>
<glyph name="T" format="2">
	<advance width="524"/>
	<unicode hex="0054"/>
	<outline>
		<contour>
			<point x="212" y="680" type="line"/>
			<point x="212" y="0" type="line"/>
			<point x="312" y="0" type="line"/>
			<point x="312" y="680" type="line"/>
		</contour>
		<contour>
			<point x="20" y="600" type="line"/>
			<point x="504" y="600" type="line"/>
			<point x="504" y="680" type="line"/>
			<point x="20" y="680" type="line"/>
		</contour>
	</outline>
</glyph>
<glyph name="a" format="2">
	<advance width="472"/>
	<unicode hex="0061"/>
	<anchor x="425" y="10" name="ogonek"/>
	<anchor x="236" y="0" name="bottom"/>
	<anchor x="236" y="500" name="top"/>
	<outline>
		<contour>
			<point x="340" y="0" type="line"/>
			<point x="404" y="0" type="line"/>
			<point x="404" y="358" type="line" smooth="yes"/>
			<point x="404" y="464"/>
			<point x="352" y="514"/>
			<point x="242" y="514" type="curve" smooth="yes"/>
			<point x="184" y="514"/>
			<point x="124" y="500"/>
			<point x="69" y="472" type="curve"/>
			<point x="69" y="396" type="line"/>
			<point x="125" y="428"/>
			<point x="163" y="440"/>
			<point x="214" y="440" type="curve" smooth="yes"/>
			<point x="287" y="440"/>
			<point x="310" y="416"/>
			<point x="310" y="340" type="curve" smooth="yes"/>
			<point x="310" y="70" type="line"/>
		</contour>
		<contour>
			<point x="136" y="136" type="curve" smooth="yes"/>
			<point x="136" y="169"/>
			<point x="142" y="194"/>
			<point x="163" y="215" type="curve"/>
			<point x="110" y="163" type="line"/>
			<point x="147" y="198"/>
			<point x="220" y="248"/>
			<point x="349" y="248" type="curve"/>
			<point x="349" y="319" type="line"/>
			<point x="140" y="297"/>
			<point x="38" y="229"/>
			<point x="38" y="116" type="curve" smooth="yes"/>
			<point x="38" y="34"/>
			<point x="93" y="-14"/>
			<point x="179" y="-14" type="curve" smooth="yes"/>
			<point x="246" y="-14"/>
			<point x="304" y="21"/>
			<point x="349" y="89" type="curve"/>
			<point x="349" y="156" type="line"/>
			<point x="305" y="94"/>
			<point x="254" y="60"/>
			<point x="207" y="60" type="curve" smooth="yes"/>
			<point x="158" y="60"/>
			<point x="136" y="83"/>
		</contour>
	</outline>
</glyph>
<glyph name="c" format="2">
	<advance width="414"/>
	<unicode hex="0063"/>
	<outline>
		<contour>
			<point x="249" y="440" type="curve" smooth="yes"/>
			<point x="305" y="440"/>
			<point x="340" y="432"/>
			<point x="384" y="408" type="curve"/>
			<point x="384" y="484" type="line"/>
			<point x="358" y="503"/>
			<point x="315" y="514"/>
			<point x="269" y="514" type="curve" smooth="yes"/>
			<point x="118" y="514"/>
			<point x="36" y="420"/>
			<point x="36" y="246" type="curve" smooth="yes"/>
			<point x="36" y="75"/>
			<point x="117" y="-14"/>
			<point x="253" y="-14" type="curve" smooth="yes"/>
			<point x="295" y="-14"/>
			<point x="336" y="-9"/>
			<point x="384" y="16" type="curve"/>
			<point x="384" y="92" type="line"/>
			<point x="340" y="68"/>
			<point x="305" y="60"/>
			<point x="273" y="60" type="curve" smooth="yes"/>
			<point x="175" y="60"/>
			<point x="136" y="106"/>
			<point x="136" y="242" type="curve" smooth="yes"/>
			<point x="136" y="345"/>
			<point x="151" y="422"/>
			<point x="172" y="443" type="curve"/>
			<point x="119" y="389" type="line"/>
			<point x="156" y="424"/>
			<point x="203" y="440"/>
		</contour>
	</outline>
</glyph>
<glyph name="i" format="2">
	<advance width="242"/>
	<unicode hex="0069"/>
	<outline>
		<contour>
			<point x="168" y="500" type="line"/>
			<point x="74" y="500" type="line"/>
			<point x="74" y="0" type="line"/>
			<point x="168" y="0" type="line"/>
		</contour>
		<contour>
			<point x="179" y="646" type="curve" smooth="yes"/>
			<point x="179" y="609"/>
			<point x="157" y="588"/>
			<point x="121" y="588" type="curve" smooth="yes"/>
			<point x="85" y="588"/>
			<point x="63" y="609"/>
			<point x="63" y="646" type="curve" smooth="yes"/>
			<point x="63" y="683"/>
			<point x="85" y="704"/>
			<point x="121" y="704" type="curve" smooth="yes"/>
			<point x="157" y="704"/>
			<point x="179" y="683"/>
		</contour>
	</outline>
</glyph>
<glyph name="n" format="2">
	<advance width="524"/>
	<unicode hex="006E"/>
	<anchor x="262" y="500" name="top"/>
	<anchor x="262" y="0" name="bottom"/>
	<outline>
		<contour>
			<point x="138" y="500" type="line"/>
			<point x="74" y="500" type="line"/>
			<point x="74" y="0" type="line"/>
			<point x="168" y="0" type="line"/>
			<point x="168" y="430" type="line"/>
		</contour>
		<contour>
			<point x="152" y="387" type="line"/>
			<point x="195" y="422"/>
			<point x="239" y="440"/>
			<point x="282" y="440" type="curve" smooth="yes"/>
			<point x="339" y="440"/>
			<point x="362" y="410"/>
			<point x="362" y="340" type="curve" smooth="yes"/>
			<point x="362" y="0" type="line"/>
			<point x="456" y="0" type="line"/>
			<point x="456" y="358" type="line" smooth="yes"/>
			<point x="456" y="458"/>
			<point x="404" y="514"/>
			<point x="310" y="514" type="curve" smooth="yes"/>
			<point x="244" y="514"/>
			<point x="179" y="486"/>
			<point x="132" y="437" type="curve"/>
		</contour>
	</outline>
</glyph>
<glyph name="q" format="2">
	<advance width="510"/>
	<unicode hex="0071"/>
	<outline>
		<contour>
			<point x="249" y="440" type="curve" smooth="yes"/>
			<point x="305" y="440"/>
			<point x="340" y="432"/>
			<point x="384" y="398" type="curve"/>
			<point x="384" y="474" type="line"/>
			<point x="358" y="503"/>
			<point x="315" y="514"/>
			<point x="269" y="514" type="curve" smooth="yes"/>
			<point x="118" y="514"/>
			<point x="36" y="420"/>
			<point x="36" y="246" type="curve" smooth="yes"/>
			<point x="36" y="75"/>
			<point x="117" y="-14"/>
			<point x="233" y="-14" type="curve" smooth="yes"/>
			<point x="285" y="-14"/>
			<point x="340" y="10"/>
			<point x="384" y="56" type="curve"/>
			<point x="384" y="132" type="line"/>
			<point x="330" y="78"/>
			<point x="295" y="60"/>
			<point x="253" y="60" type="curve" smooth="yes"/>
			<point x="175" y="60"/>
			<point x="136" y="106"/>
			<point x="136" y="242" type="curve" smooth="yes"/>
			<point x="136" y="345"/>
			<point x="151" y="422"/>
			<point x="172" y="443" type="curve"/>
			<point x="119" y="389" type="line"/>
			<point x="156" y="424"/>
			<point x="203" y="440"/>
		</contour>
		<contour>
			<point x="372" y="500" type="line"/>
			<point x="342" y="430" type="line"/>
			<point x="342" y="-200" type="line"/>
			<point x="436" y="-200" type="line"/>
			<point x="436" y="500" type="line"/>
		</contour>
	</outline>
</glyph>
<glyph name="r" format="2">
	<advance width="388"/>
	<unicode hex="0072"/>
	<outline>
		<contour>
			<point x="138" y="500" type="line"/>
			<point x="74" y="500" type="line"/>
			<point x="74" y="0" type="line"/>
			<point x="168" y="0" type="line"/>
			<point x="168" y="390" type="line"/>
		</contour>
		<contour>
			<point x="295" y="426" type="curve" smooth="yes"/>
			<point x="323" y="426"/>
			<point x="347" y="422"/>
			<point x="370" y="415" type="curve"/>
			<point x="370" y="500" type="line"/>
			<point x="350" y="510"/>
			<point x="333" y="514"/>
			<point x="309" y="514" type="curve" smooth="yes"/>
			<point x="224" y="514"/>
			<point x="137" y="430"/>
			<point x="114" y="334" type="curve"/>
			<point x="156" y="301" type="line"/>
			<point x="186" y="378"/>
			<point x="240" y="426"/>
		</contour>
	</outline>
</glyph>
<glyph name="u" format="2">
	<advance width="524"/>
	<unicode hex="0075"/>
	<outline>
		<contour>
			<point x="386" y="0" type="line"/>
			<point x="450" y="0" type="line"/>
			<point x="450" y="500" type="line"/>
			<point x="356" y="500" type="line"/>
			<point x="356" y="70" type="line"/>
		</contour>
		<contour>
			<point x="372" y="113" type="line"/>
			<point x="329" y="78"/>
			<point x="285" y="60"/>
			<point x="242" y="60" type="curve" smooth="yes"/>
			<point x="185" y="60"/>
			<point x="162" y="90"/>
			<point x="162" y="160" type="curve" smooth="yes"/>
			<point x="162" y="500" type="line"/>
			<point x="68" y="500" type="line"/>
			<point x="68" y="142" type="line" smooth="yes"/>
			<point x="68" y="42"/>
			<point x="120" y="-14"/>
			<point x="214" y="-14" type="curve" smooth="yes"/>
			<point x="280" y="-14"/>
			<point x="345" y="14"/>
			<point x="392" y="63" type="curve"/>
		</contour>
	</outline>
</glyph>
<glyph name="w" format="2">
	<advance width="722"/>
	<unicode hex="0077"/>
	<outline>
		<contour>
			<point x="152" y="0" type="line"/>
			<point x="252" y="0" type="line"/>
			<point x="379" y="406" type="line"/>
			<point x="343" y="406" type="line"/>
			<point x="466" y="0" type="line"/>
			<point x="566" y="0" type="line"/>
			<point x="722" y="500" type="line"/>
			<point x="628" y="500" type="line"/>
			<point x="510" y="18" type="line"/>
			<point x="548" y="18" type="line"/>
			<point x="404" y="500" type="line"/>
			<point x="324" y="500" type="line"/>
			<point x="186" y="18" type="line"/>
			<point x="226" y="18" type="line"/>
			<point x="102" y="500" type="line"/>
			<point x="0" y="500" type="line"/>
		</contour>
	</outline>
</glyph>
<glyph name="idotless" format="2">
	<advance width="242"/>
	<unicode hex="0131"/>
	<anchor x="218" y="10" name="ogonek"/>
	<anchor x="121" y="0" name="bottom"/>
	<anchor x="121" y="500" name="top"/>
	<outline>
		<contour>
			<point x="168" y="500" type="line"/>
			<point x="74" y="500" type="line"/>
			<point x="74" y="0" type="line"/>
			<point x="168" y="0" type="line"/>
		</contour>
	</outline>
</glyph>
<glyph name="acutecomb" format="2">
	<advance width="381"/>
	<unicode hex="0301"/>
	<anchor x="146" y="0" name="top"/>
	<anchor x="153" y="500" name="_top"/>
	<outline>
		<contour>
			<point x="178" y="730" type="line"/>
			<point x="100" y="576" type="line"/>
			<point x="153" y="561" type="line"/>
			<point x="281" y="701" type="line"/>
		</contour>
	</outline>
</glyph>
<glyph name="tildecomb" format="2">
	<advance width="539"/>
	<unicode hex="0303"/>
	<anchor x="271" y="664" name="top"/>
	<anchor x="271" y="500" name="_top"/>
	<outline>
		<contour>
			<point x="100" y="593" type="line"/>
			<point x="100" y="643"/>
			<point x="133" y="705"/>
			<point x="207" y="705" type="curve" smooth="yes"/>
			<point x="273" y="705"/>
			<point x="304" y="655"/>
			<point x="344" y="655" type="curve" smooth="yes"/>
			<point x="361" y="655"/>
			<point x="380" y="666"/>
			<point x="389" y="693" type="curve"/>
			<point x="438" y="682" type="line"/>
			<point x="438" y="642"/>
			<point x="405" y="580"/>
			<point x="332" y="580" type="curve" smooth="yes"/>
			<point x="265" y="580"/>
			<point x="234" y="630"/>
			<point x="194" y="630" type="curve" smooth="yes"/>
			<point x="177" y="630"/>
			<point x="158" y="619"/>
			<point x="149" y="592" type="curve"/>
		</contour>
	</outline>
</glyph>
<glyph name="C.alt02" format="2">
	<advance width="557"/>
	<outline>
		<contour>
			<point x="514" y="131" type="line"/>
			<point x="462" y="99"/>
			<point x="407" y="77"/>
			<point x="328" y="77" type="curve" smooth="yes"/>
			<point x="201" y="77"/>
			<point x="150" y="153"/>
			<point x="150" y="329" type="curve" smooth="yes"/>
			<point x="150" y="537"/>
			<point x="188" y="646"/>
			<point x="272" y="619" type="curve"/>
			<point x="124" y="535" type="line"/>
			<point x="171" y="581"/>
			<point x="247" y="605"/>
			<point x="323" y="605" type="curve" smooth="yes"/>
			<point x="389" y="605"/>
			<point x="426" y="591"/>
			<point x="483" y="571" type="curve"/>
			<point x="515" y="647" type="line"/>
			<point x="466" y="673"/>
			<point x="402" y="694"/>
			<point x="324" y="694" type="curve"/>
			<point x="141" y="694"/>
			<point x="42" y="568"/>
			<point x="42" y="335" type="curve" smooth="yes"/>
			<point x="42" y="108"/>
			<point x="149" y="-14"/>
			<point x="319" y="-14" type="curve"/>
			<point x="396" y="-14"/>
			<point x="461" y="10"/>
			<point x="504" y="46" type="curve"/>
		</contour>
	</outline>
</glyph>
<glyph name="D.alt01" format="2">
	<advance width="641"/>
	<outline>
		<contour>
			<point x="82" y="0" type="line"/>
			<point x="413" y="0" type="line"/>
			<point x="494" y="44"/>
			<point x="599" y="148"/>
			<point x="599" y="353" type="curve" smooth="yes"/>
			<point x="599" y="547"/>
			<point x="522" y="680"/>
			<point x="285" y="680" type="curve" smooth="yes"/>
			<point x="226" y="680"/>
			<point x="160" y="680"/>
			<point x="82" y="680" type="curve"/>
		</contour>
		<contour>
			<point x="367" y="51" type="curve"/>
			<point x="484" y="109" type="line"/>
			<point x="441" y="91"/>
			<point x="394" y="90"/>
			<point x="304" y="90" type="curve" smooth="yes"/>
			<point x="182" y="90" type="line"/>
			<point x="182" y="590" type="line"/>
			<point x="317" y="590" type="line"/>
			<point x="441" y="588"/>
			<point x="500" y="519"/>
			<point x="498" y="351" type="curve" smooth="yes"/>
			<point x="495" y="143"/>
			<point x="417" y="74"/>
		</contour>
	</outline>
</glyph>
<glyph name="F.alt01" format="2">
	<advance width="482"/>
	<outline>
		<contour>
			<point x="84" y="0" type="line"/>
			<point x="184" y="0" type="line"/>
			<point x="184" y="292" type="line"/>
			<point x="413" y="284" type="line"/>
			<point x="413" y="376" type="line"/>
			<point x="184" y="368" type="line"/>
			<point x="184" y="598" type="line"/>
			<point x="450" y="590" type="line"/>
			<point x="450" y="680" type="line"/>
			<point x="84" y="680" type="line"/>
		</contour>
	</outline>
</glyph>
<glyph name="G.alt01" format="2">
	<advance width="588"/>
	<outline>
		<contour>
			<point x="333" y="-14" type="curve" smooth="yes"/>
			<point x="409" y="-14"/>
			<point x="479" y="2"/>
			<point x="545" y="46" type="curve"/>
			<point x="545" y="322" type="line"/>
			<point x="449" y="322" type="line"/>
			<point x="449" y="59" type="line"/>
			<point x="508" y="118" type="line"/>
			<point x="458" y="91"/>
			<point x="391" y="74"/>
			<point x="333" y="74" type="curve" smooth="yes"/>
			<point x="211" y="74"/>
			<point x="150" y="139"/>
			<point x="150" y="329" type="curve" smooth="yes"/>
			<point x="150" y="473"/>
			<point x="174" y="581"/>
			<point x="206" y="610" type="curve"/>
			<point x="124" y="534" type="line"/>
			<point x="182" y="583"/>
			<point x="255" y="606"/>
			<point x="327" y="606" type="curve" smooth="yes"/>
			<point x="398" y="606"/>
			<point x="428" y="603"/>
			<point x="486" y="570" type="curve"/>
			<point x="419" y="620" type="line"/>
			<point x="413" y="599"/>
			<point x="410" y="582"/>
			<point x="410" y="565" type="curve" smooth="yes"/>
			<point x="410" y="515"/>
			<point x="440" y="494"/>
			<point x="476" y="494" type="curve" smooth="yes"/>
			<point x="517" y="494"/>
			<point x="550" y="514"/>
			<point x="550" y="571" type="curve" smooth="yes"/>
			<point x="550" y="641"/>
			<point x="483" y="694"/>
			<point x="341" y="694" type="curve" smooth="yes"/>
			<point x="158" y="694"/>
			<point x="42" y="571"/>
			<point x="42" y="335" type="curve" smooth="yes"/>
			<point x="42" y="105"/>
			<point x="150" y="-14"/>
		</contour>
	</outline>
</glyph>
<glyph name="L.alt01" format="2">
	<advance width="486"/>
	<outline>
		<contour>
			<point x="84" y="0" type="line"/>
			<point x="454" y="0" type="line"/>
			<point x="454" y="90" type="line"/>
			<point x="184" y="82" type="line"/>
			<point x="184" y="680" type="line"/>
			<point x="84" y="680" type="line"/>
		</contour>
	</outline>
</glyph>
<glyph name="a.alt01" format="2">
	<advance width="452"/>
	<outline>
		<contour>
			<point x="310" y="-10" type="line"/>
			<point x="410" y="9" type="line"/>
			<point x="404" y="107" type="line"/>
			<point x="404" y="358" type="line" smooth="yes"/>
			<point x="404" y="464"/>
			<point x="352" y="514"/>
			<point x="242" y="514" type="curve" smooth="yes"/>
			<point x="184" y="514"/>
			<point x="124" y="500"/>
			<point x="69" y="472" type="curve"/>
			<point x="69" y="396" type="line"/>
			<point x="125" y="428"/>
			<point x="163" y="440"/>
			<point x="214" y="440" type="curve" smooth="yes"/>
			<point x="287" y="440"/>
			<point x="310" y="416"/>
			<point x="310" y="340" type="curve" smooth="yes"/>
		</contour>
		<contour>
			<point x="179" y="-14" type="curve" smooth="yes"/>
			<point x="246" y="-14"/>
			<point x="304" y="21"/>
			<point x="349" y="89" type="curve"/>
			<point x="349" y="156" type="line"/>
			<point x="305" y="94"/>
			<point x="254" y="60"/>
			<point x="207" y="60" type="curve" smooth="yes"/>
			<point x="158" y="60"/>
			<point x="136" y="83"/>
			<point x="136" y="136" type="curve" smooth="yes"/>
			<point x="136" y="169"/>
			<point x="142" y="194"/>
			<point x="163" y="215" type="curve"/>
			<point x="110" y="163" type="line"/>
			<point x="147" y="198"/>
			<point x="220" y="248"/>
			<point x="349" y="248" type="curve"/>
			<point x="349" y="319" type="line"/>
			<point x="140" y="297"/>
			<point x="38" y="229"/>
			<point x="38" y="116" type="curve" smooth="yes"/>
			<point x="38" y="34"/>
			<point x="93" y="-14"/>
		</contour>
	</outline>
</glyph>
<glyph name="c.alt01" format="2">
	<advance width="438"/>
	<outline>
		<contour>
			<point x="384" y="92" type="line"/>
			<point x="340" y="68"/>
			<point x="305" y="60"/>
			<point x="273" y="60" type="curve" smooth="yes"/>
			<point x="175" y="60"/>
			<point x="136" y="106"/>
			<point x="136" y="242" type="curve" smooth="yes"/>
			<point x="136" y="345"/>
			<point x="151" y="422"/>
			<point x="172" y="443" type="curve"/>
			<point x="119" y="389" type="line"/>
			<point x="156" y="424"/>
			<point x="203" y="440"/>
			<point x="249" y="440" type="curve" smooth="yes"/>
			<point x="272" y="440"/>
			<point x="297" y="437"/>
			<point x="346" y="410" type="curve"/>
			<point x="290" y="452" type="line"/>
			<point x="285" y="434"/>
			<point x="282" y="420"/>
			<point x="282" y="406" type="curve" smooth="yes"/>
			<point x="282" y="364"/>
			<point x="307" y="346"/>
			<point x="338" y="346" type="curve" smooth="yes"/>
			<point x="372" y="346"/>
			<point x="400" y="363"/>
			<point x="400" y="411" type="curve" smooth="yes"/>
			<point x="400" y="470"/>
			<point x="344" y="514"/>
			<point x="259" y="514" type="curve" smooth="yes"/>
			<point x="123" y="514"/>
			<point x="36" y="422"/>
			<point x="36" y="246" type="curve" smooth="yes"/>
			<point x="36" y="75"/>
			<point x="117" y="-14"/>
			<point x="253" y="-14" type="curve" smooth="yes"/>
			<point x="295" y="-14"/>
			<point x="336" y="-9"/>
			<point x="384" y="16" type="curve"/>
		</contour>
	</outline>
</glyph>
<glyph name="n.alt01" format="2">
	<advance width="524"/>
	<outline>
		<contour>
			<point x="168" y="510" type="line"/>
			<point x="68" y="491" type="line"/>
			<point x="74" y="393" type="line"/>
			<point x="74" y="0" type="line"/>
			<point x="168" y="0" type="line"/>
		</contour>
		<contour>
			<point x="152" y="387" type="line"/>
			<point x="195" y="422"/>
			<point x="239" y="440"/>
			<point x="282" y="440" type="curve" smooth="yes"/>
			<point x="339" y="440"/>
			<point x="362" y="410"/>
			<point x="362" y="340" type="curve" smooth="yes"/>
			<point x="362" y="0" type="line"/>
			<point x="456" y="0" type="line"/>
			<point x="456" y="359" type="line" smooth="yes"/>
			<point x="456" y="458"/>
			<point x="404" y="514"/>
			<point x="310" y="514" type="curve" smooth="yes"/>
			<point x="244" y="514"/>
			<point x="179" y="486"/>
			<point x="132" y="437" type="curve"/>
		</contour>
	</outline>
</glyph>
<glyph name="n.alt02" format="2">
	<advance width="524"/>
	<outline>
		<contour>
			<point x="152" y="387" type="line"/>
			<point x="195" y="422"/>
			<point x="239" y="440"/>
			<point x="282" y="440" type="curve" smooth="yes"/>
			<point x="339" y="440"/>
			<point x="362" y="410"/>
			<point x="362" y="340" type="curve" smooth="yes"/>
			<point x="362" y="0" type="line"/>
			<point x="456" y="0" type="line"/>
			<point x="456" y="358" type="line" smooth="yes"/>
			<point x="456" y="458"/>
			<point x="404" y="514"/>
			<point x="310" y="514" type="curve" smooth="yes"/>
			<point x="244" y="514"/>
			<point x="179" y="486"/>
			<point x="132" y="437" type="curve"/>
		</contour>
		<contour>
			<point x="36" y="485" type="line"/>
			<point x="62" y="442"/>
			<point x="74" y="392"/>
			<point x="74" y="333" type="curve" smooth="yes"/>
			<point x="74" y="0" type="line"/>
			<point x="168" y="0" type="line"/>
			<point x="168" y="357" type="line" smooth="yes"/>
			<point x="168" y="419"/>
			<point x="158" y="462"/>
			<point x="132" y="510" type="curve"/>
		</contour>
	</outline>
</glyph>
<glyph name="r.alt02" format="2">
	<advance width="388"/>
	<outline>
		<contour>
			<point x="36" y="485" type="line"/>
			<point x="62" y="442"/>
			<point x="74" y="392"/>
			<point x="74" y="333" type="curve" smooth="yes"/>
			<point x="74" y="0" type="line"/>
			<point x="168" y="0" type="line"/>
			<point x="168" y="357" type="line" smooth="yes"/>
			<point x="168" y="419"/>
			<point x="158" y="462"/>
			<point x="132" y="510" type="curve"/>
		</contour>
		<contour>
			<point x="295" y="426" type="curve" smooth="yes"/>
			<point x="323" y="426"/>
			<point x="347" y="422"/>
			<point x="370" y="415" type="curve"/>
			<point x="370" y="500" type="line"/>
			<point x="350" y="510"/>
			<point x="333" y="514"/>
			<point x="309" y="514" type="curve" smooth="yes"/>
			<point x="224" y="514"/>
			<point x="137" y="430"/>
			<point x="114" y="334" type="curve"/>
			<point x="156" y="301" type="line"/>
			<point x="186" y="378"/>
			<point x="240" y="426"/>
		</contour>
	</outline>
</glyph>
